# xmcd
#
# Track frame offsets: 
#        150
#        26569
#        44789
#        60282
#        82421
#        112719
#        129393
#        147828
#
# Disc length: 2174 seconds
#
# Revision: 1
# Processed by: cddbd v1.5.2PL0 Copyright (c) Steve Scherf et al.
# Submitted via: ExactAudioCopyFreeDBPlugin 1.0
#
DISCID=69087c08
DTITLE=Bloodstone - Do You Wanna Do A Thing?
DYEAR=1976
DGENRE=Funk
TTITLE0=Stand Up, Let's Party
TTITLE1=If You Wanna Be My Baby
TTITLE2=Just Like In The Movies
TTITLE3=Do You Wanna Do A Thing
TTITLE4=Shake The Building
TTITLE5=This Is It
TTITLE6=When We're Doin' It
TTITLE7=Give Me Your Heart
EXTD=
EXTT0=
EXTT1=
EXTT2=
EXTT3=
EXTT4=
EXTT5=
EXTT6=
EXTT7=
PLAYORDER=
